<svg width="30" height="30" viewBox="0 0 30 30" fill="none" xmlns="http://www.w3.org/2000/svg">
<circle cx="15" cy="15" r="15" fill="#EDEFF1"/>
<path d="M16.3077 14.6427C15.0107 14.1325 14.1557 13.3544 13.2795 11.7315C13.1032 11.405 12.5959 11.4447 12.4608 11.7908C11.9248 13.1633 11.1505 14.0009 9.44937 14.5941C9.06498 14.7281 9.03726 15.3316 9.41017 15.4937C10.9767 16.1745 11.8357 17.0077 12.4154 18.5174C12.5438 18.852 13.0209 18.9059 13.2045 18.5976C14.0392 17.1958 14.8187 16.276 16.3371 15.5674C16.7033 15.3965 16.6833 14.7905 16.3077 14.6427Z" fill="url(#paint0_linear_10412_6801)"/>
<path d="M20.2792 9.99211C19.6701 9.73513 19.2689 9.34866 18.8644 8.55058C18.7791 8.38226 18.5178 8.39992 18.449 8.57617C18.1875 9.24658 17.8135 9.65645 17.0099 9.94392C16.8209 10.0116 16.8042 10.306 16.9857 10.3905C17.7222 10.7337 18.1271 11.1487 18.3959 11.893C18.4579 12.0646 18.7034 12.0931 18.7954 11.935C19.1944 11.2485 19.5702 10.7968 20.2903 10.451C20.4699 10.3648 20.4624 10.0694 20.2792 9.99211Z" fill="url(#paint1_linear_10412_6801)"/>
<path d="M20.3044 19.5646C19.6978 19.3029 19.3001 18.9134 18.9032 18.1123C18.8195 17.9433 18.558 17.959 18.4876 18.1347C18.2197 18.8031 17.8419 19.2101 17.0357 19.4914C16.846 19.5576 16.8265 19.8518 17.0073 19.9378C17.7405 20.2865 18.1415 20.7047 18.4033 21.4509C18.4637 21.623 18.709 21.6534 18.8024 21.496C19.2079 20.8125 19.5879 20.3638 20.3112 20.0235C20.4916 19.9386 20.4868 19.6432 20.3044 19.5646Z" fill="url(#paint2_linear_10412_6801)"/>
<defs>
<linearGradient id="paint0_linear_10412_6801" x1="12.8931" y1="10.7642" x2="12.8267" y2="19.4515" gradientUnits="userSpaceOnUse">
<stop stop-color="#177DFF"/>
<stop offset="1" stop-color="#0F4488"/>
</linearGradient>
<linearGradient id="paint1_linear_10412_6801" x1="18.6706" y1="8.03497" x2="18.604" y2="12.3883" gradientUnits="userSpaceOnUse">
<stop stop-color="#177DFF"/>
<stop offset="1" stop-color="#0F4488"/>
</linearGradient>
<linearGradient id="paint2_linear_10412_6801" x1="18.7142" y1="17.5952" x2="18.6143" y2="21.948" gradientUnits="userSpaceOnUse">
<stop stop-color="#177DFF"/>
<stop offset="1" stop-color="#0F4488"/>
</linearGradient>
</defs>
</svg>
